<svg width="40" height="43" viewBox="0 0 40 43" fill="none" xmlns="http://www.w3.org/2000/svg">
<path d="M26.1701 0C18.7155 0 12.6506 6.51971 12.6506 14.5334C12.6506 17.7643 12.1472 21.1732 9.94667 23.5389L0.599629 33.5877C0.414863 33.7864 0.311035 34.0557 0.311035 34.3366V41.9409C0.311035 42.5258 0.752129 43 1.29627 43H7.12564C7.38666 43 7.63697 42.8887 7.82174 42.6904L9.78619 40.5818C9.97135 40.3831 10.0753 40.1135 10.0753 39.8323V39.6483C10.0753 38.3178 11.1539 37.2392 12.4845 37.2392C13.0286 37.2392 13.4697 36.765 13.4697 36.18V36.1077C13.4697 35.5744 13.9021 35.142 14.4354 35.142C14.9795 35.142 15.4206 34.6678 15.4206 34.0829V33.9239C15.4206 32.753 16.3698 31.8039 17.5406 31.8039C17.8019 31.8039 18.0524 31.6923 18.2373 31.4936C20.1235 29.466 23.0825 28.9945 25.851 29.0627C25.9571 29.0653 26.0634 29.0667 26.1699 29.0667C33.6245 29.0667 39.6894 22.5469 39.6894 14.5332C39.6895 6.51971 33.6247 0 26.1701 0ZM26.1701 26.9484C24.5574 26.9484 22.9978 26.5983 21.5342 25.9076C21.1558 25.729 20.7296 25.8273 20.4506 26.1196C20.4475 26.1228 20.4445 26.1253 20.4416 26.1285L18.9697 27.7108C17.7982 28.9702 16.1556 29.6856 14.4356 29.6856C13.8914 29.6856 13.4503 30.1598 13.4503 30.7447V32.058C13.4503 32.5914 13.018 33.0238 12.4846 33.0238C11.9406 33.0238 11.4994 33.4979 11.4994 34.0829C11.4994 34.6562 11.0346 35.1209 10.4613 35.1209H9.09017C8.54611 35.1209 8.10494 35.5951 8.10494 36.18V38.4266C8.10494 39.0477 7.86952 39.6457 7.44612 40.1002C6.98172 40.5986 6.3311 40.8817 5.64985 40.8817H3.35594C2.76263 40.8817 2.28166 40.4007 2.28166 39.8074C2.28166 39.5359 2.38445 39.2745 2.56937 39.0757L14.3239 26.4396C14.6703 26.0673 14.6703 25.4638 14.3239 25.0916C13.9776 24.7194 13.4163 24.7192 13.0698 25.0916L3.41044 35.4755C3.00724 35.9089 2.28166 35.6236 2.28166 35.0316C2.28166 34.867 2.34401 34.7084 2.45616 34.5878L15.3829 20.6906C15.3859 20.6874 15.3881 20.6844 15.3909 20.6813C15.6629 20.3816 15.7546 19.9234 15.5885 19.5163C14.9467 17.9431 14.6213 16.2665 14.6213 14.5335C14.6213 7.68776 19.8022 2.11834 26.1703 2.11834C32.5385 2.11834 37.7192 7.68768 37.7192 14.5335C37.719 21.3791 32.5381 26.9484 26.1701 26.9484Z" fill="black"/>
<path d="M30.2841 6.14294C28.2492 6.14294 26.5938 7.92257 26.5938 10.1101C26.5938 12.2977 28.2492 14.0773 30.2841 14.0773C32.3191 14.0773 33.9745 12.2977 33.9745 10.1101C33.9745 7.92257 32.3191 6.14294 30.2841 6.14294ZM30.2841 11.959C29.3358 11.959 28.5642 11.1296 28.5642 10.1101C28.5642 9.09063 29.3358 8.2612 30.2841 8.2612C31.2325 8.2612 32.0041 9.09063 32.0041 10.1101C32.0041 11.1296 31.2325 11.959 30.2841 11.959Z" fill="black"/>
</svg>
